<svg id="Ebene_1" data-name="Ebene 1" xmlns="http://www.w3.org/2000/svg" xmlns:xlink="http://www.w3.org/1999/xlink" viewBox="0 0 1387 700"><defs><style>.cls-1{fill:url(#Unbenannter_Verlauf_84);}.cls-2,.cls-28,.cls-6{fill:#fff;}.cls-3{fill:url(#Unbenannter_Verlauf_73);}.cls-4{fill:#001024;}.cls-5{fill:url(#Unbenannter_Verlauf_13);}.cls-28,.cls-6{font-size:18px;font-family:ZFPrometo-Light, ZF Prometo;font-weight:300;}.cls-7{letter-spacing:-0.03em;}.cls-8{letter-spacing:-0.04em;}.cls-9{letter-spacing:-0.01em;}.cls-10{letter-spacing:-0.02em;}.cls-11{letter-spacing:-0.02em;}.cls-12{letter-spacing:-0.02em;}.cls-13{letter-spacing:-0.01em;}.cls-14{letter-spacing:-0.02em;}.cls-15{letter-spacing:0em;}.cls-16{letter-spacing:0.01em;}.cls-17{opacity:0.51;}.cls-18{opacity:0.47;}.cls-19{fill:#f2f2f2;}.cls-20{fill:url(#Unbenannter_Verlauf_43);}.cls-21{fill:url(#Unbenannter_Verlauf_32);}.cls-22{fill:#e6e6e6;opacity:0.63;}.cls-23{fill:url(#Unbenannter_Verlauf_51);}.cls-24{fill:#ccc;opacity:0.26;}.cls-25{fill:url(#Unbenannter_Verlauf_55);}.cls-26{fill:#b3b3b3;}.cls-27{fill:#000f7f;}.cls-28{letter-spacing:-0.02em;}.cls-29{letter-spacing:0em;}.cls-30{letter-spacing:-0.01em;}.cls-31{letter-spacing:0.01em;}</style><radialGradient id="Unbenannter_Verlauf_84" cx="887.59" cy="794.57" r="596.41" gradientUnits="userSpaceOnUse"><stop offset="0.13" stop-color="#fff"/><stop offset="0.19" stop-color="#dee0ec"/><stop offset="0.32" stop-color="#a4a9ca"/><stop offset="0.44" stop-color="#727aac"/><stop offset="0.56" stop-color="#495495"/><stop offset="0.68" stop-color="#293682"/><stop offset="0.8" stop-color="#122075"/><stop offset="0.9" stop-color="#05136d"/><stop offset="1" stop-color="#000f6a"/></radialGradient><radialGradient id="Unbenannter_Verlauf_73" cx="943.63" cy="109.38" r="40.39" gradientUnits="userSpaceOnUse"><stop offset="0" stop-color="#15a6ff"/><stop offset="0.11" stop-color="#15a3fa"/><stop offset="0.25" stop-color="#1399eb"/><stop offset="0.39" stop-color="#1188d3"/><stop offset="0.55" stop-color="#0e71b2"/><stop offset="0.71" stop-color="#095487"/><stop offset="0.87" stop-color="#043053"/><stop offset="1" stop-color="#001024"/></radialGradient><linearGradient id="Unbenannter_Verlauf_13" x1="467" y1="231" x2="467" y2="231" gradientUnits="userSpaceOnUse"><stop offset="0" stop-color="#1179bf"/><stop offset="1"/></linearGradient><linearGradient id="Unbenannter_Verlauf_43" x1="496.22" y1="495.44" x2="686.22" y2="600.77" gradientTransform="matrix(0.86, 0.22, -0.23, 0.79, 207.47, 3.22)" gradientUnits="userSpaceOnUse"><stop offset="0" stop-color="#ccc"/><stop offset="0.09" stop-color="#d4d4d4"/><stop offset="0.36" stop-color="#e5e5e5"/><stop offset="0.64" stop-color="#efefef"/><stop offset="1" stop-color="#f2f2f2"/></linearGradient><linearGradient id="Unbenannter_Verlauf_32" x1="376.37" y1="658" x2="477" y2="658" gradientTransform="matrix(1, 0, 0, 1, 0, 0)" xlink:href="#Unbenannter_Verlauf_43"/><linearGradient id="Unbenannter_Verlauf_51" x1="817.03" y1="531.05" x2="851.96" y2="656.19" gradientUnits="userSpaceOnUse"><stop offset="0" stop-color="#ccc"/><stop offset="0.13" stop-color="#dadada"/><stop offset="0.32" stop-color="#e8e8e8"/><stop offset="0.56" stop-color="#f0f0f0"/><stop offset="1" stop-color="#f2f2f2"/></linearGradient><linearGradient id="Unbenannter_Verlauf_55" x1="632.29" y1="605.91" x2="659.67" y2="605.91" gradientTransform="translate(1055.47 1387.49) rotate(-165.9)" gradientUnits="userSpaceOnUse"><stop offset="0" stop-color="#f2f2f2"/><stop offset="1" stop-color="#ccc"/></linearGradient></defs><title>About</title><rect class="cls-1" width="1387" height="700"/><path class="cls-2" d="M796.74,100.12l-1.65-.17a.28.28,0,0,1-.24-.19l-.59-1.57a.28.28,0,0,0-.53,0l-.58,1.57a.29.29,0,0,1-.24.19l-1.65.17a.31.31,0,0,0-.16.54l1.24,1.2a.3.3,0,0,1,.09.3l-.37,1.68a.29.29,0,0,0,.42.34l1.38-.89a.3.3,0,0,1,.29,0l1.37.89a.29.29,0,0,0,.42-.34l-.37-1.68a.32.32,0,0,1,.09-.3l1.25-1.2A.32.32,0,0,0,796.74,100.12Z" transform="translate(280)"/><path class="cls-2" d="M825.87,128.1,825,128a.14.14,0,0,1-.11-.1l-.3-.81a.14.14,0,0,0-.26,0l-.3.81a.13.13,0,0,1-.11.1l-.83.09a.17.17,0,0,0-.08.28l.62.62a.17.17,0,0,1,.05.15l-.19.87c0,.14.1.25.21.18l.69-.46a.12.12,0,0,1,.14,0l.69.46c.11.07.24,0,.21-.18l-.18-.87a.17.17,0,0,1,0-.15l.62-.62A.17.17,0,0,0,825.87,128.1Z" transform="translate(280)"/><path class="cls-2" d="M767.87,81.1,767,81a.14.14,0,0,1-.11-.1l-.3-.81a.14.14,0,0,0-.26,0l-.3.81a.13.13,0,0,1-.11.1l-.83.09a.17.17,0,0,0-.08.28l.62.62a.17.17,0,0,1,.05.15l-.19.87c0,.14.1.25.21.18l.69-.46a.12.12,0,0,1,.14,0l.69.46c.11.07.24,0,.21-.18l-.18-.87a.17.17,0,0,1,0-.15l.62-.62A.17.17,0,0,0,767.87,81.1Z" transform="translate(280)"/><path class="cls-2" d="M520.74,161.12l-1.65-.17a.28.28,0,0,1-.24-.19l-.59-1.57a.28.28,0,0,0-.53,0l-.58,1.57a.29.29,0,0,1-.24.19l-1.65.17a.31.31,0,0,0-.16.54l1.24,1.2a.3.3,0,0,1,.09.3l-.37,1.68a.29.29,0,0,0,.42.34l1.38-.89a.3.3,0,0,1,.29,0l1.37.89a.29.29,0,0,0,.42-.34l-.37-1.68a.32.32,0,0,1,.09-.3l1.25-1.2A.32.32,0,0,0,520.74,161.12Z" transform="translate(280)"/><path class="cls-2" d="M549.87,189.1,549,189a.14.14,0,0,1-.11-.1l-.3-.81a.14.14,0,0,0-.26,0l-.3.81a.13.13,0,0,1-.11.1l-.83.09a.17.17,0,0,0-.08.28l.62.62a.17.17,0,0,1,.05.15l-.19.87c0,.14.1.25.21.18l.69-.46a.12.12,0,0,1,.14,0l.69.46c.11.07.24,0,.21-.18l-.18-.87a.17.17,0,0,1,0-.15l.62-.62A.17.17,0,0,0,549.87,189.1Z" transform="translate(280)"/><path class="cls-2" d="M491.87,142.1,491,142a.14.14,0,0,1-.11-.1l-.3-.81a.14.14,0,0,0-.26,0l-.3.81a.13.13,0,0,1-.11.1l-.83.09a.17.17,0,0,0-.08.28l.62.62a.17.17,0,0,1,.05.15l-.19.87c0,.14.1.25.21.18l.69-.46a.12.12,0,0,1,.14,0l.69.46c.11.07.24,0,.21-.18l-.18-.87a.17.17,0,0,1,0-.15l.62-.62A.17.17,0,0,0,491.87,142.1Z" transform="translate(280)"/><circle class="cls-3" cx="932.5" cy="96.5" r="16.5"/><path class="cls-4" d="M636,96c-1.47.79-2.58,1.43-4,2.25C614.06,108.61,607.92,117,618.27,117s33.29-8.39,51.23-18.75S693.58,79.5,683.23,79.5c-11,0-20.13,3.39-19.93,4.39a1.52,1.52,0,0,0,.67.9,1.25,1.25,0,0,0,.27.12c.92.26,8.21-2.94,12.31-3.52a38.32,38.32,0,0,1,4.13-.34c9.06-.32,3.43,6.76-12.57,15.82s-36.31,16.65-45.37,17c-2.35.08-3.67-.34-4-1.17-1.19-2.61,8.55-9.27,17.3-14.67" transform="translate(280)"/><path class="cls-5" d="M467,231" transform="translate(280)"/><text class="cls-6" transform="translate(53 54)">Bei <tspan class="cls-7" x="28.76" y="0">F</tspan><tspan class="cls-8" x="38.27" y="0">r</tspan><tspan x="44.64" y="0">agen bit</tspan><tspan class="cls-9" x="109.66" y="0">t</tspan><tspan x="116.15" y="0">e </tspan><tspan class="cls-10" x="130.21" y="0">f</tspan><tspan x="135.85" y="0">olgende </tspan><tspan class="cls-11" x="203.92" y="0">A</tspan><tspan x="215.39" y="0">b</tspan><tspan class="cls-9" x="225.74" y="0">t</tspan><tspan x="232.23" y="0">eilung </tspan><tspan class="cls-12" x="284.34" y="0">k</tspan><tspan x="293.24" y="0">onta</tspan><tspan class="cls-13" x="329.9" y="0">k</tspan><tspan x="338.87" y="0">tie</tspan><tspan class="cls-14" x="358.76" y="0">r</tspan><tspan class="cls-15" x="365.45" y="0">en:</tspan></text><text class="cls-6" transform="translate(53 82.33)">And<tspan class="cls-14" x="32.33" y="0">r</tspan><tspan x="39.02" y="0">eas </tspan><tspan class="cls-16" x="71.68" y="0">B</tspan><tspan x="82.94" y="0">auer FIIW43</tspan></text><text class="cls-6" transform="translate(53 111)">Elmar Isele FIIW43</text><g class="cls-17"><path class="cls-2" d="M100.64,255.84l-.32-1.63a.29.29,0,0,1,.11-.28l1.33-1a.28.28,0,0,0-.16-.51l-1.67-.1a.31.31,0,0,1-.25-.17L99,250.6a.32.32,0,0,0-.57,0l-.78,1.54a.35.35,0,0,1-.26.18l-1.71.13a.29.29,0,0,0-.21.5L96.76,254a.25.25,0,0,1,.08.27l-.44,1.58a.29.29,0,0,0,.45.3l1.49-.84a.33.33,0,0,1,.32,0l1.51.84A.33.33,0,0,0,100.64,255.84Z" transform="translate(280)"/></g><g class="cls-18"><path class="cls-2" d="M82.37,291.86l-.16-.81a.15.15,0,0,1,.06-.15l.69-.51a.14.14,0,0,0-.08-.26l-.86,0a.15.15,0,0,1-.13-.08l-.32-.77a.17.17,0,0,0-.29,0l-.41.77a.19.19,0,0,1-.14.09l-.89.07a.15.15,0,0,0-.1.26l.64.52a.15.15,0,0,1,0,.14l-.24.79c0,.13.11.22.23.15l.78-.43a.15.15,0,0,1,.16,0l.77.41A.17.17,0,0,0,82.37,291.86Z" transform="translate(280)"/></g><g class="cls-18"><path class="cls-2" d="M110.41,222.68l-.15-.82a.14.14,0,0,1,.06-.14l.69-.52a.14.14,0,0,0-.08-.25l-.86,0a.16.16,0,0,1-.13-.09l-.32-.76a.17.17,0,0,0-.3,0l-.41.78a.16.16,0,0,1-.13.09l-.89.07c-.14,0-.21.17-.1.25l.63.53a.15.15,0,0,1,0,.14l-.24.79c0,.12.1.22.23.15l.77-.43a.17.17,0,0,1,.17,0l.77.41C110.29,222.9,110.44,222.8,110.41,222.68Z" transform="translate(280)"/></g><path class="cls-19" d="M911.93,700C871.44,581.65,753.35,496,614,496S356.49,581.65,316,700Z" transform="translate(280)"/><ellipse class="cls-20" cx="576.72" cy="556.02" rx="70.6" ry="33.66" transform="translate(154.25 170.92) rotate(-15.22)"/><path class="cls-21" d="M425.37,700c6.11-11.07,25.52-42.79,51.63-51.27L451.16,616s-104.9,23.51-66.24,84Z" transform="translate(280)"/><path class="cls-22" d="M826.33,700c-9.13-50-54.6-88-109.33-88s-100.2,38-109.33,88Z" transform="translate(280)"/><path class="cls-23" d="M911.61,700c-23.52-69.77-74.24-127.67-140.07-162,36.37,44.5,62,100.23,72.36,162Z" transform="translate(280)"/><path class="cls-24" d="M791.56,700h34.77c-9.13-50-54.6-88-109.33-88a113,113,0,0,0-79.35,32c6.49-.64,13.1-1,19.8-1C712.75,643.06,761.68,665.53,791.56,700Z" transform="translate(280)"/><path class="cls-25" d="M570.93,656.32l-3,.16c-6.59.35-9.16-4.92-5.71-11.72l1.57-3.08c3.46-6.8,11.68-12.64,18.27-13l3-.16c6.59-.35,9.16,4.92,5.71,11.72l-1.57,3.08C585.74,650.12,577.52,656,570.93,656.32Z" transform="translate(280)"/><rect class="cls-26" x="853.5" y="542" width="5.5" height="102.5" rx="2.75"/><path class="cls-27" d="M577,548.81s1.88-4.31,6.88,3.44c4.74,7.36,3.86,17.82,11.23,27a10.64,10.64,0,0,0,2.29,2.1c2.27,1.58,7.46,6.26,6.48,15.74a163,163,0,0,0-.11,25.22,10.56,10.56,0,0,1-.62,4.49c-.91,2.37-2.87,4.32-6.77-2.14-5.81-9.61-12.7-20.71-18.16-31.21a11.05,11.05,0,0,1-1.22-5.07Z" transform="translate(280)"/><text class="cls-28" transform="translate(53 143)">L<tspan class="cls-29" x="9.29" y="0">u</tspan><tspan class="cls-30" x="19.48" y="0">c</tspan><tspan class="cls-29" x="27.56" y="0">a Iannuzzi FIIW43</tspan></text><text class="cls-6" transform="translate(53 177)">Christian <tspan class="cls-31" x="74.83" y="0">R</tspan><tspan x="86.17" y="0">etzbach FIIW43</tspan></text></svg>