<svg id="Ebene_1" data-name="Ebene 1" xmlns="http://www.w3.org/2000/svg" viewBox="0 0 1046.11 399.97"><defs><style>.cls-1{fill:#1179bf;}.cls-2{fill:#fff;}.cls-12,.cls-15,.cls-3,.cls-6,.cls-9{fill:none;}.cls-3{stroke:#1179bf;}.cls-10,.cls-12,.cls-13,.cls-15,.cls-16,.cls-3,.cls-6,.cls-7,.cls-9{stroke-miterlimit:10;stroke-width:2px;}.cls-4{fill:#00abe7;}.cls-10,.cls-13,.cls-16,.cls-5,.cls-7{fill:#fafcfd;}.cls-6,.cls-7{stroke:#00abe7;}.cls-8{fill:#010411;}.cls-10,.cls-9{stroke:#010411;}.cls-11{fill:#7fd5f3;}.cls-12,.cls-13{stroke:#7fd5f3;}.cls-14{fill:#7f7f7f;}.cls-15,.cls-16{stroke:#7f7f7f;}.cls-17{font-size:24px;font-family:ZFPrometo-Medium, ZF Prometo;font-weight:500;}.cls-18{font-size:21px;font-family:ZFPrometo-Light, ZF Prometo;font-weight:300;}.cls-19{letter-spacing:-0.01em;}.cls-20{letter-spacing:-0.01em;}.cls-21{letter-spacing:-0.01em;}.cls-22{letter-spacing:-0.02em;}.cls-23{letter-spacing:0em;}.cls-24{letter-spacing:0.01em;}.cls-25{letter-spacing:-0.01em;}.cls-26{letter-spacing:0em;}.cls-27{letter-spacing:-0.01em;}.cls-28{letter-spacing:0em;}.cls-29{letter-spacing:-0.02em;}.cls-30{letter-spacing:-0.02em;}.cls-31{letter-spacing:-0.01em;}.cls-32{letter-spacing:-0.02em;}</style></defs><title>HowItWorksWithText</title><polygon class="cls-1" points="199.4 17 187.5 0 0.49 0 8.4 16 0 33 187.5 33 199.4 17"/><circle class="cls-2" cx="99.49" cy="16" r="7"/><line class="cls-3" x1="99.49" y1="33" x2="99.49" y2="130"/><circle class="cls-3" cx="99.49" cy="179" r="49"/><path class="cls-1" d="M81.12,277.83A7.38,7.38,0,0,0,74,285.42a1,1,0,0,0,1,1.08h12.2a1,1,0,0,0,1-1.08A7.37,7.37,0,0,0,81.12,277.83Zm-5,6.5a5.25,5.25,0,0,1,4-4.21v2.05h2v-2.05a5.28,5.28,0,0,1,4,4.21Z" transform="translate(-2.51 -75.5)"/><path class="cls-1" d="M134,268.08H132.2c-.06-.15-.11-.3-.18-.45l1.26-1.34a1.13,1.13,0,0,0,0-1.53l-4.31-4.6a1,1,0,0,0-.76-.31,5.45,5.45,0,0,0,2.72-4.77V226.92a5.26,5.26,0,0,0-5.08-5.42H79.08A5.26,5.26,0,0,0,74,226.92v28.16a5.26,5.26,0,0,0,5.08,5.42H92.35l-3.84,7.58h-1.8a3.8,3.8,0,0,0,0,7.59h21.86a1,1,0,0,0,1,1.08h1.79c0,.15.11.3.17.45l-1.26,1.35a1.13,1.13,0,0,0,0,1.53l4.31,4.59a1,1,0,0,0,1.44,0l1.26-1.34.43.19v1.9a1,1,0,0,0,1,1.08h6.1a1,1,0,0,0,1-1.08v-1.9l.42-.19,1.26,1.34a1,1,0,0,0,1.44,0l4.31-4.59a1.13,1.13,0,0,0,0-1.53L132,277.2c.07-.15.12-.3.18-.45H134a1,1,0,0,0,1-1.08v-6.5A1.05,1.05,0,0,0,134,268.08ZM76,226.92a3.15,3.15,0,0,1,3-3.25h46.77a3.15,3.15,0,0,1,3.05,3.25v22.75H76Zm3,31.41a3.15,3.15,0,0,1-3-3.25v-3.25H128.9v3.25a3.15,3.15,0,0,1-3.05,3.25H79.08Zm48.44,1.85-1.25,1.33-.42-.19v-.82A4.91,4.91,0,0,0,127.52,260.18Zm-9.8.32v.82l-.43.19-.94-1Zm-3.44,0-.88.93-.6-.93Zm-5.71,13H86.71a1.63,1.63,0,0,1,0-3.25h21.86Zm-17.75-5.42,3.84-7.58h15.68l1.6,2.49-1.66,1.77a1.13,1.13,0,0,0,0,1.53l1.26,1.34c-.06.15-.12.3-.17.45H90.82Zm42.15,6.5h-1.49a1,1,0,0,0-1,.76,9.39,9.39,0,0,1-.62,1.58,1.14,1.14,0,0,0,.19,1.27l1,1.12-2.88,3.06-1-1.12a1,1,0,0,0-1.19-.19,9.6,9.6,0,0,1-1.48.66,1.06,1.06,0,0,0-.71,1v1.58h-4.07v-1.58a1.08,1.08,0,0,0-.71-1,9.6,9.6,0,0,1-1.48-.66,1,1,0,0,0-1.19.19l-1.06,1.13-2.87-3.07,1-1.12a1.12,1.12,0,0,0,.18-1.27,11.47,11.47,0,0,1-.62-1.58,1,1,0,0,0-1-.76H110.6v-4.33h1.48a1,1,0,0,0,1-.76,12,12,0,0,1,.62-1.58,1.14,1.14,0,0,0-.18-1.27l-1-1.12,2.87-3.06,1.06,1.12a1,1,0,0,0,1.19.2,8,8,0,0,1,1.48-.66,1.1,1.1,0,0,0,.71-1V260.5h4.07v1.58a1.06,1.06,0,0,0,.71,1,9.6,9.6,0,0,1,1.48.66,1,1,0,0,0,1.19-.19l1-1.12,2.88,3.06-1,1.12a1.14,1.14,0,0,0-.19,1.27,9.74,9.74,0,0,1,.62,1.58,1,1,0,0,0,1,.76H133Z" transform="translate(-2.51 -75.5)"/><path class="cls-1" d="M121.78,265.92a6.51,6.51,0,1,0,6.1,6.5A6.32,6.32,0,0,0,121.78,265.92Zm0,10.83a4.34,4.34,0,1,1,4.07-4.33A4.2,4.2,0,0,1,121.78,276.75Z" transform="translate(-2.51 -75.5)"/><path class="cls-1" d="M94,229.85l-1.44-1.53-7.12,7.58a1.13,1.13,0,0,0,0,1.53L92.6,245,94,243.48l-6.4-6.81Z" transform="translate(-2.51 -75.5)"/><path class="cls-1" d="M116.4,235.9l-7.11-7.58-1.44,1.53,6.4,6.82-6.4,6.81,1.44,1.54,7.11-7.59A1.13,1.13,0,0,0,116.4,235.9Z" transform="translate(-2.51 -75.5)"/><polygon class="cls-1" points="92.95 169.35 102.1 149.85 103.92 150.82 94.77 170.32 92.95 169.35"/><rect class="cls-1" x="111.14" y="167.67" width="2.03" height="2.17"/><rect class="cls-1" x="115.21" y="167.67" width="2.03" height="2.17"/><rect class="cls-1" x="119.28" y="167.67" width="2.03" height="2.17"/><polygon class="cls-4" points="408.65 17 396.75 0 209.74 0 217.65 16 209.25 33 396.75 33 408.65 17"/><circle class="cls-5" cx="308.74" cy="16" r="7"/><line class="cls-6" x1="308.74" y1="33" x2="308.74" y2="130"/><circle class="cls-7" cx="308.74" cy="179" r="49"/><path class="cls-4" d="M334.17,242.15a18.92,18.92,0,0,0-18.86-17.65,19.84,19.84,0,0,0-15.57,7.64l-.26-.11c-.22-.11-.44-.2-.67-.29l-.39-.14a7,7,0,0,0-.69-.21l-.38-.1c-.25,0-.51-.1-.77-.13l-.34,0a10.36,10.36,0,0,0-1.12-.07,9.94,9.94,0,0,0-10.05,9.81c0,.14,0,.28,0,.42a15,15,0,0,0-7.84,12.83,14.19,14.19,0,0,0,14.34,14h5.76a1.09,1.09,0,1,0,0-2.18h-5.76a12,12,0,0,1-12.11-11.83,12.9,12.9,0,0,1,7.19-11.17l.63-.3v-.69c0-.13,0-.26,0-.39v-.21l0-.21c0-.09,0-.18,0-.28a7.74,7.74,0,0,1,7.82-7.63,8.74,8.74,0,0,1,1,.07l.26,0a8.63,8.63,0,0,1,.88.2l.12,0a6.12,6.12,0,0,1,.93.35l.24.11a7.37,7.37,0,0,1,.78.43,7.58,7.58,0,0,1,3.58,6.4,1.12,1.12,0,0,0,2.24,0,9.68,9.68,0,0,0-3.58-7.49,17.84,17.84,0,0,1,13.72-6.68,16.7,16.7,0,0,1,16.58,15.14,21.39,21.39,0,0,0-4.56.14,1.08,1.08,0,0,0-.93,1.24,1.1,1.1,0,0,0,1.1.92h.17a20.86,20.86,0,0,1,5.23,0A11.24,11.24,0,0,1,342,255a11.09,11.09,0,0,1-11.2,10.94h-4.44a1.09,1.09,0,1,0,0,2.18h4.44A13.29,13.29,0,0,0,344.25,255,13.47,13.47,0,0,0,334.17,242.15Z" transform="translate(-2.51 -75.5)"/><path class="cls-4" d="M320,269.52l-7,6.86V253.94a1.12,1.12,0,0,0-2.23,0v22.44l-7-6.86a1.13,1.13,0,0,0-1.58,0,1.08,1.08,0,0,0,0,1.54l8.94,8.72a1.13,1.13,0,0,0,.36.24,1.26,1.26,0,0,0,.43.08,1.2,1.2,0,0,0,.42-.08,1.31,1.31,0,0,0,.37-.24l8.93-8.72a1.06,1.06,0,0,0,0-1.54A1.13,1.13,0,0,0,320,269.52Z" transform="translate(-2.51 -75.5)"/><polygon class="cls-8" points="1036.4 17 1024.49 0 837.49 0 845.4 16 837 33 1024.49 33 1036.4 17"/><line class="cls-9" x1="936.49" y1="33" x2="936.49" y2="136.5"/><circle class="cls-10" cx="936.49" cy="185.5" r="49"/><path d="M918.54,241.2a6.36,6.36,0,1,0-6.08-6.35A6.22,6.22,0,0,0,918.54,241.2Z" transform="translate(-2.51 -75.5)"/><path d="M934.86,234.34,931.58,239l-8.26,3.44s-.08,0-.13,0-9.55.06-9.67.08a2.57,2.57,0,0,0-2.61,1.55l-8.67,19.84a2.77,2.77,0,0,0,1.28,3.6,2.55,2.55,0,0,0,3.45-1.34l4.19-9.59v33.81a3.12,3.12,0,1,0,6.24,0V271h2.28v19.42a3.12,3.12,0,1,0,6.24,0V247.22l8.29-3.45a2.68,2.68,0,0,0,1.14-.92l2.37-3.39-2-2.87A4.84,4.84,0,0,1,934.86,234.34Z" transform="translate(-2.51 -75.5)"/><path d="M959.46,241.2a6.36,6.36,0,1,0-6.08-6.35A6.22,6.22,0,0,0,959.46,241.2Z" transform="translate(-2.51 -75.5)"/><path d="M975.76,263.89l-8.67-19.84a2.57,2.57,0,0,0-2.61-1.55c-.12,0-9.76-.05-9.8-.05L946.42,239l-4.84-6.91a2.53,2.53,0,0,0-3.64-.59,2.8,2.8,0,0,0-.56,3.8l5.28,7.54a2.68,2.68,0,0,0,1.14.92l8.29,3.45c0,3.92,0,38.47,0,43.15a3.12,3.12,0,1,0,6.24,0V271h2.28v19.42a3.12,3.12,0,1,0,6.24,0V256.56l4.19,9.59a2.55,2.55,0,0,0,3.45,1.34A2.76,2.76,0,0,0,975.76,263.89Z" transform="translate(-2.51 -75.5)"/><circle class="cls-5" cx="936.49" cy="16" r="7"/><polygon class="cls-11" points="617.9 17 606 0 418.99 0 426.9 16 418.5 33 606 33 617.9 17"/><line class="cls-12" x1="517.99" y1="33" x2="517.99" y2="130"/><circle class="cls-13" cx="517.99" cy="179" r="49"/><circle class="cls-5" cx="517.99" cy="16" r="7"/><path class="cls-11" d="M558.9,256.5H547.72V229a2.85,2.85,0,0,0-2.7-3H491.7a2.85,2.85,0,0,0-2.7,3v48.36a2.85,2.85,0,0,0,2.7,3h43.58a.34.34,0,0,1,0-.1H545a2.85,2.85,0,0,0,2.7-3v-11.7H558.9a4.54,4.54,0,0,0,0-9Zm-16.6-27.06a2,2,0,1,1-1.77,1.94A1.86,1.86,0,0,1,542.3,229.44Zm-7.78,0a2,2,0,1,1-1.76,1.94A1.87,1.87,0,0,1,534.52,229.44Zm-7.72,0a2,2,0,1,1-1.77,1.94A1.86,1.86,0,0,1,526.8,229.44Zm18.6,47.79a.41.41,0,0,1-.38.43H501.6v.1h-9.9a.4.4,0,0,1-.38-.42V237.05H545a1.21,1.21,0,0,0,.38-.06v0h0V256.5H542a4.81,4.81,0,0,0,.75-2.59,4.69,4.69,0,0,0-1.21-3.19,3.85,3.85,0,0,0-5.8,0L529,258.07a4.8,4.8,0,0,0-1.2,3.35,4.7,4.7,0,0,0,1.41,3.25l7.14,6.85a3.84,3.84,0,0,0,5.79-.43,4.84,4.84,0,0,0,.27-5.56h3v11.7Zm13.74-13.71H538l2.82,2.71a2.68,2.68,0,0,1,.22,3.54,2.18,2.18,0,0,1-1.72.86,2.14,2.14,0,0,1-1.5-.62l-7.14-6.85a2.6,2.6,0,0,1-.78-1.81,2.69,2.69,0,0,1,.66-1.86l6.69-7.35a2.14,2.14,0,0,1,3.23,0,2.68,2.68,0,0,1,0,3.54l-2.57,2.83h21.25a2.52,2.52,0,0,1,0,5Z" transform="translate(-2.51 -75.5)"/><polygon class="cls-14" points="827.15 17 815.25 0 628.24 0 636.15 16 627.75 33 815.25 33 827.15 17"/><line class="cls-15" x1="727.24" y1="33" x2="727.24" y2="130"/><circle class="cls-16" cx="727.24" cy="179" r="49"/><circle class="cls-5" cx="727.24" cy="16" r="7"/><path class="cls-14" d="M738.32,285.94a4,4,0,0,1-1.32-2.49l-.45-3.25H722.2l-.45,3.25a4,4,0,0,1-1.32,2.49c-1.2,1-2.15,1.85-1.2,2s9.51,0,10.15,0,9.23.13,10.14,0S739.52,286.94,738.32,285.94Z" transform="translate(-2.51 -75.5)"/><path class="cls-14" d="M713.22,260c3.83,0,4.31-1.07,5.55-5.41,2.31-6.85,12.68,1.79,6.25,4.79S709.38,260.05,713.22,260Z" transform="translate(-2.51 -75.5)"/><path class="cls-14" d="M752.51,214.88c-1.86-1.7-4.94-.86-6.88,1.85L726,248.24c-1.94,2.72-1.93,2.2-.07,3.89s1.41,1.81,3.35-.9l23.11-28.37C754.3,220.14,754.37,216.56,752.51,214.88Zm-5,3.77a11,11,0,0,0-1.25-1.24,4.21,4.21,0,0,1,4.26-2.17C747.79,217,747.46,218.65,747.46,218.65Z" transform="translate(-2.51 -75.5)"/><path class="cls-14" d="M761.23,225.52h-8.65l-3.81,4.69h11.08v37.5H698.91v-37.5h35.44l2.93-4.69H697.52a3,3,0,0,0-2.77,3.13V274a3,3,0,0,0,2.77,3.12h63.71A3,3,0,0,0,764,274V228.65A3,3,0,0,0,761.23,225.52Z" transform="translate(-2.51 -75.5)"/><text class="cls-17" transform="translate(67.49 271.17)">STEP 1</text><text class="cls-18" transform="translate(29 319.5)">Build up a <tspan class="cls-19" x="96.18" y="0">S</tspan><tspan x="107.85" y="0">AP </tspan><tspan x="-1.54" y="25.2">UI 5 Appli</tspan><tspan class="cls-20" x="84.74" y="25.2">c</tspan><tspan x="94.17" y="25.2">ation</tspan></text><text class="cls-17" transform="translate(268.83 271.17)">STEP 2</text><text class="cls-17" transform="translate(486.49 271.17)">STEP 3</text><text class="cls-17" transform="translate(690.49 271.17)">STEP 4</text><text class="cls-17" transform="translate(902.83 271.17)">STEP 5</text><text class="cls-18" transform="translate(215.16 319.5)">D<tspan class="cls-21" x="14.2" y="0">o</tspan><tspan class="cls-22" x="25.56" y="0">w</tspan><tspan class="cls-23" x="40.66" y="0">nload this Theme</tspan><tspan x="0" y="25.2">that adjusts your </tspan><tspan x="0" y="50.4">d</tspan><tspan class="cls-24" x="11.93" y="50.4">e</tspan><tspan x="23.29" y="50.4">sign </tspan><tspan class="cls-25" x="67.2" y="50.4">t</tspan><tspan class="cls-26" x="74.78" y="50.4">o the ZF </tspan><tspan x="0" y="75.6">Guidelin</tspan><tspan class="cls-24" x="73.02" y="75.6">e</tspan><tspan x="84.38" y="75.6">s</tspan></text><text class="cls-18" transform="translate(447.16 319.5)">Import this Theme <tspan x="0" y="25.2">in</tspan><tspan class="cls-25" x="16.23" y="25.2">t</tspan><tspan class="cls-26" x="23.81" y="25.2">o your IDE </tspan></text><text x="-2.51" y="-75.5"/><text class="cls-18" transform="translate(644.83 319.5)">Apply the theme <tspan class="cls-27" x="160.48" y="0">t</tspan><tspan class="cls-28" x="168.06" y="0">o</tspan><tspan x="0" y="25.2">the appli</tspan><tspan class="cls-29" x="80.05" y="25.2">c</tspan><tspan x="89.48" y="25.2">ation and </tspan><tspan x="0" y="50.4">add some cus</tspan><tspan class="cls-27" x="128.58" y="50.4">t</tspan><tspan x="136.16" y="50.4">om </tspan><tspan x="0" y="75.6">css if ne</tspan><tspan class="cls-30" x="75.33" y="75.6">cc</tspan><tspan class="cls-24" x="94.06" y="75.6">e</tspan><tspan x="105.42" y="75.6">sary </tspan></text><text class="cls-18" transform="translate(865.49 319.5)">Enjoy the n<tspan class="cls-31" x="105.69" y="0">e</tspan><tspan class="cls-28" x="116.59" y="0">w </tspan><tspan x="0" y="25.2">d</tspan><tspan class="cls-24" x="11.93" y="25.2">e</tspan><tspan class="cls-28" x="23.29" y="25.2">sign that </tspan><tspan class="cls-32" x="111.36" y="25.2">f</tspan><tspan class="cls-28" x="117.93" y="25.2">oll</tspan><tspan class="cls-21" x="138.09" y="25.2">o</tspan><tspan x="149.46" y="25.2">ws </tspan><tspan x="0" y="50.4">the ZF Guideline</tspan></text></svg>