<svg xmlns="http://www.w3.org/2000/svg" viewBox="0 0 600 250" id="el_XjDOSI00hL"><style>@-webkit-keyframes el_Kg3vGX-zEWr_v7YzuU_FN_Animation{0%{-webkit-transform: translate(532.9209594726562px, 86.7982406616211px) scale(1, 1) translate(-532.9209594726562px, -86.7982406616211px);transform: translate(532.9209594726562px, 86.7982406616211px) scale(1, 1) translate(-532.9209594726562px, -86.7982406616211px);}50%{-webkit-transform: translate(532.9209594726562px, 86.7982406616211px) scale(1.3, 1.3) translate(-532.9209594726562px, -86.7982406616211px);transform: translate(532.9209594726562px, 86.7982406616211px) scale(1.3, 1.3) translate(-532.9209594726562px, -86.7982406616211px);}63.33%{-webkit-transform: translate(532.9209594726562px, 86.7982406616211px) scale(1.3, 1.3) translate(-532.9209594726562px, -86.7982406616211px);transform: translate(532.9209594726562px, 86.7982406616211px) scale(1.3, 1.3) translate(-532.9209594726562px, -86.7982406616211px);}98.89%{-webkit-transform: translate(532.9209594726562px, 86.7982406616211px) scale(0, 0) translate(-532.9209594726562px, -86.7982406616211px);transform: translate(532.9209594726562px, 86.7982406616211px) scale(0, 0) translate(-532.9209594726562px, -86.7982406616211px);}100%{-webkit-transform: translate(532.9209594726562px, 86.7982406616211px) scale(0, 0) translate(-532.9209594726562px, -86.7982406616211px);transform: translate(532.9209594726562px, 86.7982406616211px) scale(0, 0) translate(-532.9209594726562px, -86.7982406616211px);}}@keyframes el_Kg3vGX-zEWr_v7YzuU_FN_Animation{0%{-webkit-transform: translate(532.9209594726562px, 86.7982406616211px) scale(1, 1) translate(-532.9209594726562px, -86.7982406616211px);transform: translate(532.9209594726562px, 86.7982406616211px) scale(1, 1) translate(-532.9209594726562px, -86.7982406616211px);}50%{-webkit-transform: translate(532.9209594726562px, 86.7982406616211px) scale(1.3, 1.3) translate(-532.9209594726562px, -86.7982406616211px);transform: translate(532.9209594726562px, 86.7982406616211px) scale(1.3, 1.3) translate(-532.9209594726562px, -86.7982406616211px);}63.33%{-webkit-transform: translate(532.9209594726562px, 86.7982406616211px) scale(1.3, 1.3) translate(-532.9209594726562px, -86.7982406616211px);transform: translate(532.9209594726562px, 86.7982406616211px) scale(1.3, 1.3) translate(-532.9209594726562px, -86.7982406616211px);}98.89%{-webkit-transform: translate(532.9209594726562px, 86.7982406616211px) scale(0, 0) translate(-532.9209594726562px, -86.7982406616211px);transform: translate(532.9209594726562px, 86.7982406616211px) scale(0, 0) translate(-532.9209594726562px, -86.7982406616211px);}100%{-webkit-transform: translate(532.9209594726562px, 86.7982406616211px) scale(0, 0) translate(-532.9209594726562px, -86.7982406616211px);transform: translate(532.9209594726562px, 86.7982406616211px) scale(0, 0) translate(-532.9209594726562px, -86.7982406616211px);}}@-webkit-keyframes el_6ud46Cw64f8_6Hd2YcAvJ_Animation{56.67%{-webkit-transform: translate(53.2599983215332px, 108.5999984741211px) scale(1, 1) translate(-53.2599983215332px, -108.5999984741211px);transform: translate(53.2599983215332px, 108.5999984741211px) scale(1, 1) translate(-53.2599983215332px, -108.5999984741211px);}77.78%{-webkit-transform: translate(53.2599983215332px, 108.5999984741211px) scale(1.3, 1.3) translate(-53.2599983215332px, -108.5999984741211px);transform: translate(53.2599983215332px, 108.5999984741211px) scale(1.3, 1.3) translate(-53.2599983215332px, -108.5999984741211px);}98.89%{-webkit-transform: translate(53.2599983215332px, 108.5999984741211px) scale(1, 1) translate(-53.2599983215332px, -108.5999984741211px);transform: translate(53.2599983215332px, 108.5999984741211px) scale(1, 1) translate(-53.2599983215332px, -108.5999984741211px);}0%{-webkit-transform: translate(53.2599983215332px, 108.5999984741211px) scale(1, 1) translate(-53.2599983215332px, -108.5999984741211px);transform: translate(53.2599983215332px, 108.5999984741211px) scale(1, 1) translate(-53.2599983215332px, -108.5999984741211px);}100%{-webkit-transform: translate(53.2599983215332px, 108.5999984741211px) scale(1, 1) translate(-53.2599983215332px, -108.5999984741211px);transform: translate(53.2599983215332px, 108.5999984741211px) scale(1, 1) translate(-53.2599983215332px, -108.5999984741211px);}}@keyframes el_6ud46Cw64f8_6Hd2YcAvJ_Animation{56.67%{-webkit-transform: translate(53.2599983215332px, 108.5999984741211px) scale(1, 1) translate(-53.2599983215332px, -108.5999984741211px);transform: translate(53.2599983215332px, 108.5999984741211px) scale(1, 1) translate(-53.2599983215332px, -108.5999984741211px);}77.78%{-webkit-transform: translate(53.2599983215332px, 108.5999984741211px) scale(1.3, 1.3) translate(-53.2599983215332px, -108.5999984741211px);transform: translate(53.2599983215332px, 108.5999984741211px) scale(1.3, 1.3) translate(-53.2599983215332px, -108.5999984741211px);}98.89%{-webkit-transform: translate(53.2599983215332px, 108.5999984741211px) scale(1, 1) translate(-53.2599983215332px, -108.5999984741211px);transform: translate(53.2599983215332px, 108.5999984741211px) scale(1, 1) translate(-53.2599983215332px, -108.5999984741211px);}0%{-webkit-transform: translate(53.2599983215332px, 108.5999984741211px) scale(1, 1) translate(-53.2599983215332px, -108.5999984741211px);transform: translate(53.2599983215332px, 108.5999984741211px) scale(1, 1) translate(-53.2599983215332px, -108.5999984741211px);}100%{-webkit-transform: translate(53.2599983215332px, 108.5999984741211px) scale(1, 1) translate(-53.2599983215332px, -108.5999984741211px);transform: translate(53.2599983215332px, 108.5999984741211px) scale(1, 1) translate(-53.2599983215332px, -108.5999984741211px);}}@-webkit-keyframes el_nCKx6-sVwka_m_3osGjWM_Animation{26.67%{-webkit-transform: translate(49.84000015258789px, 108.5999984741211px) scale(1, 1) translate(-49.84000015258789px, -108.5999984741211px);transform: translate(49.84000015258789px, 108.5999984741211px) scale(1, 1) translate(-49.84000015258789px, -108.5999984741211px);}50%{-webkit-transform: translate(49.84000015258789px, 108.5999984741211px) scale(1.3, 1.3) translate(-49.84000015258789px, -108.5999984741211px);transform: translate(49.84000015258789px, 108.5999984741211px) scale(1.3, 1.3) translate(-49.84000015258789px, -108.5999984741211px);}70%{-webkit-transform: translate(49.84000015258789px, 108.5999984741211px) scale(1, 1) translate(-49.84000015258789px, -108.5999984741211px);transform: translate(49.84000015258789px, 108.5999984741211px) scale(1, 1) translate(-49.84000015258789px, -108.5999984741211px);}0%{-webkit-transform: translate(49.84000015258789px, 108.5999984741211px) scale(1, 1) translate(-49.84000015258789px, -108.5999984741211px);transform: translate(49.84000015258789px, 108.5999984741211px) scale(1, 1) translate(-49.84000015258789px, -108.5999984741211px);}100%{-webkit-transform: translate(49.84000015258789px, 108.5999984741211px) scale(1, 1) translate(-49.84000015258789px, -108.5999984741211px);transform: translate(49.84000015258789px, 108.5999984741211px) scale(1, 1) translate(-49.84000015258789px, -108.5999984741211px);}}@keyframes el_nCKx6-sVwka_m_3osGjWM_Animation{26.67%{-webkit-transform: translate(49.84000015258789px, 108.5999984741211px) scale(1, 1) translate(-49.84000015258789px, -108.5999984741211px);transform: translate(49.84000015258789px, 108.5999984741211px) scale(1, 1) translate(-49.84000015258789px, -108.5999984741211px);}50%{-webkit-transform: translate(49.84000015258789px, 108.5999984741211px) scale(1.3, 1.3) translate(-49.84000015258789px, -108.5999984741211px);transform: translate(49.84000015258789px, 108.5999984741211px) scale(1.3, 1.3) translate(-49.84000015258789px, -108.5999984741211px);}70%{-webkit-transform: translate(49.84000015258789px, 108.5999984741211px) scale(1, 1) translate(-49.84000015258789px, -108.5999984741211px);transform: translate(49.84000015258789px, 108.5999984741211px) scale(1, 1) translate(-49.84000015258789px, -108.5999984741211px);}0%{-webkit-transform: translate(49.84000015258789px, 108.5999984741211px) scale(1, 1) translate(-49.84000015258789px, -108.5999984741211px);transform: translate(49.84000015258789px, 108.5999984741211px) scale(1, 1) translate(-49.84000015258789px, -108.5999984741211px);}100%{-webkit-transform: translate(49.84000015258789px, 108.5999984741211px) scale(1, 1) translate(-49.84000015258789px, -108.5999984741211px);transform: translate(49.84000015258789px, 108.5999984741211px) scale(1, 1) translate(-49.84000015258789px, -108.5999984741211px);}}@-webkit-keyframes el_lM7BzwWpp6y_zs4bOFOgI_Animation{0%{-webkit-transform: translate(46.42000198364258px, 108.5999984741211px) scale(1, 1) translate(-46.42000198364258px, -108.5999984741211px);transform: translate(46.42000198364258px, 108.5999984741211px) scale(1, 1) translate(-46.42000198364258px, -108.5999984741211px);}21.11%{-webkit-transform: translate(46.42000198364258px, 108.5999984741211px) scale(1.3, 1.3) translate(-46.42000198364258px, -108.5999984741211px);transform: translate(46.42000198364258px, 108.5999984741211px) scale(1.3, 1.3) translate(-46.42000198364258px, -108.5999984741211px);}41.11%{-webkit-transform: translate(46.42000198364258px, 108.5999984741211px) scale(1, 1) translate(-46.42000198364258px, -108.5999984741211px);transform: translate(46.42000198364258px, 108.5999984741211px) scale(1, 1) translate(-46.42000198364258px, -108.5999984741211px);}100%{-webkit-transform: translate(46.42000198364258px, 108.5999984741211px) scale(1, 1) translate(-46.42000198364258px, -108.5999984741211px);transform: translate(46.42000198364258px, 108.5999984741211px) scale(1, 1) translate(-46.42000198364258px, -108.5999984741211px);}}@keyframes el_lM7BzwWpp6y_zs4bOFOgI_Animation{0%{-webkit-transform: translate(46.42000198364258px, 108.5999984741211px) scale(1, 1) translate(-46.42000198364258px, -108.5999984741211px);transform: translate(46.42000198364258px, 108.5999984741211px) scale(1, 1) translate(-46.42000198364258px, -108.5999984741211px);}21.11%{-webkit-transform: translate(46.42000198364258px, 108.5999984741211px) scale(1.3, 1.3) translate(-46.42000198364258px, -108.5999984741211px);transform: translate(46.42000198364258px, 108.5999984741211px) scale(1.3, 1.3) translate(-46.42000198364258px, -108.5999984741211px);}41.11%{-webkit-transform: translate(46.42000198364258px, 108.5999984741211px) scale(1, 1) translate(-46.42000198364258px, -108.5999984741211px);transform: translate(46.42000198364258px, 108.5999984741211px) scale(1, 1) translate(-46.42000198364258px, -108.5999984741211px);}100%{-webkit-transform: translate(46.42000198364258px, 108.5999984741211px) scale(1, 1) translate(-46.42000198364258px, -108.5999984741211px);transform: translate(46.42000198364258px, 108.5999984741211px) scale(1, 1) translate(-46.42000198364258px, -108.5999984741211px);}}@-webkit-keyframes el_FHnWfFsZT-n_CoplCvhDC_Animation{0%{-webkit-transform: translate(67.27000617980957px, 103.0999984741211px) rotate(0deg) translate(-67.27000617980957px, -103.0999984741211px);transform: translate(67.27000617980957px, 103.0999984741211px) rotate(0deg) translate(-67.27000617980957px, -103.0999984741211px);}50%{-webkit-transform: translate(67.27000617980957px, 103.0999984741211px) rotate(180deg) translate(-67.27000617980957px, -103.0999984741211px);transform: translate(67.27000617980957px, 103.0999984741211px) rotate(180deg) translate(-67.27000617980957px, -103.0999984741211px);}98.89%{-webkit-transform: translate(67.27000617980957px, 103.0999984741211px) rotate(360deg) translate(-67.27000617980957px, -103.0999984741211px);transform: translate(67.27000617980957px, 103.0999984741211px) rotate(360deg) translate(-67.27000617980957px, -103.0999984741211px);}100%{-webkit-transform: translate(67.27000617980957px, 103.0999984741211px) rotate(360deg) translate(-67.27000617980957px, -103.0999984741211px);transform: translate(67.27000617980957px, 103.0999984741211px) rotate(360deg) translate(-67.27000617980957px, -103.0999984741211px);}}@keyframes el_FHnWfFsZT-n_CoplCvhDC_Animation{0%{-webkit-transform: translate(67.27000617980957px, 103.0999984741211px) rotate(0deg) translate(-67.27000617980957px, -103.0999984741211px);transform: translate(67.27000617980957px, 103.0999984741211px) rotate(0deg) translate(-67.27000617980957px, -103.0999984741211px);}50%{-webkit-transform: translate(67.27000617980957px, 103.0999984741211px) rotate(180deg) translate(-67.27000617980957px, -103.0999984741211px);transform: translate(67.27000617980957px, 103.0999984741211px) rotate(180deg) translate(-67.27000617980957px, -103.0999984741211px);}98.89%{-webkit-transform: translate(67.27000617980957px, 103.0999984741211px) rotate(360deg) translate(-67.27000617980957px, -103.0999984741211px);transform: translate(67.27000617980957px, 103.0999984741211px) rotate(360deg) translate(-67.27000617980957px, -103.0999984741211px);}100%{-webkit-transform: translate(67.27000617980957px, 103.0999984741211px) rotate(360deg) translate(-67.27000617980957px, -103.0999984741211px);transform: translate(67.27000617980957px, 103.0999984741211px) rotate(360deg) translate(-67.27000617980957px, -103.0999984741211px);}}@-webkit-keyframes el_Kg3vGX-zEWr_Animation{0%{opacity: 0;}50%{opacity: 1;}66.67%{opacity: 0;}100%{opacity: 0;}}@keyframes el_Kg3vGX-zEWr_Animation{0%{opacity: 0;}50%{opacity: 1;}66.67%{opacity: 0;}100%{opacity: 0;}}@-webkit-keyframes el_KmovpzKobVj_9ZgUOCqdh_Animation{0%{-webkit-transform: translate(425.5077819824219px, 100.25838088989258px) rotate(0deg) translate(-425.5077819824219px, -100.25838088989258px);transform: translate(425.5077819824219px, 100.25838088989258px) rotate(0deg) translate(-425.5077819824219px, -100.25838088989258px);}50%{-webkit-transform: translate(425.5077819824219px, 100.25838088989258px) rotate(-50deg) translate(-425.5077819824219px, -100.25838088989258px);transform: translate(425.5077819824219px, 100.25838088989258px) rotate(-50deg) translate(-425.5077819824219px, -100.25838088989258px);}98.89%{-webkit-transform: translate(425.5077819824219px, 100.25838088989258px) rotate(0deg) translate(-425.5077819824219px, -100.25838088989258px);transform: translate(425.5077819824219px, 100.25838088989258px) rotate(0deg) translate(-425.5077819824219px, -100.25838088989258px);}100%{-webkit-transform: translate(425.5077819824219px, 100.25838088989258px) rotate(0deg) translate(-425.5077819824219px, -100.25838088989258px);transform: translate(425.5077819824219px, 100.25838088989258px) rotate(0deg) translate(-425.5077819824219px, -100.25838088989258px);}}@keyframes el_KmovpzKobVj_9ZgUOCqdh_Animation{0%{-webkit-transform: translate(425.5077819824219px, 100.25838088989258px) rotate(0deg) translate(-425.5077819824219px, -100.25838088989258px);transform: translate(425.5077819824219px, 100.25838088989258px) rotate(0deg) translate(-425.5077819824219px, -100.25838088989258px);}50%{-webkit-transform: translate(425.5077819824219px, 100.25838088989258px) rotate(-50deg) translate(-425.5077819824219px, -100.25838088989258px);transform: translate(425.5077819824219px, 100.25838088989258px) rotate(-50deg) translate(-425.5077819824219px, -100.25838088989258px);}98.89%{-webkit-transform: translate(425.5077819824219px, 100.25838088989258px) rotate(0deg) translate(-425.5077819824219px, -100.25838088989258px);transform: translate(425.5077819824219px, 100.25838088989258px) rotate(0deg) translate(-425.5077819824219px, -100.25838088989258px);}100%{-webkit-transform: translate(425.5077819824219px, 100.25838088989258px) rotate(0deg) translate(-425.5077819824219px, -100.25838088989258px);transform: translate(425.5077819824219px, 100.25838088989258px) rotate(0deg) translate(-425.5077819824219px, -100.25838088989258px);}}@-webkit-keyframes el_prxEhMiaDpR_mTTVF3g9r_Animation{0%{-webkit-transform: translate(278.5099792480469px, 101.73889923095703px) translate(-278.5099792480469px, -101.73889923095703px) translate(2px, 0px);transform: translate(278.5099792480469px, 101.73889923095703px) translate(-278.5099792480469px, -101.73889923095703px) translate(2px, 0px);}50%{-webkit-transform: translate(278.5099792480469px, 101.73889923095703px) translate(-278.5099792480469px, -101.73889923095703px) translate(-4px, 0px);transform: translate(278.5099792480469px, 101.73889923095703px) translate(-278.5099792480469px, -101.73889923095703px) translate(-4px, 0px);}98.89%{-webkit-transform: translate(278.5099792480469px, 101.73889923095703px) translate(-278.5099792480469px, -101.73889923095703px) translate(2px, 0px);transform: translate(278.5099792480469px, 101.73889923095703px) translate(-278.5099792480469px, -101.73889923095703px) translate(2px, 0px);}100%{-webkit-transform: translate(278.5099792480469px, 101.73889923095703px) translate(-278.5099792480469px, -101.73889923095703px) translate(2px, 0px);transform: translate(278.5099792480469px, 101.73889923095703px) translate(-278.5099792480469px, -101.73889923095703px) translate(2px, 0px);}}@keyframes el_prxEhMiaDpR_mTTVF3g9r_Animation{0%{-webkit-transform: translate(278.5099792480469px, 101.73889923095703px) translate(-278.5099792480469px, -101.73889923095703px) translate(2px, 0px);transform: translate(278.5099792480469px, 101.73889923095703px) translate(-278.5099792480469px, -101.73889923095703px) translate(2px, 0px);}50%{-webkit-transform: translate(278.5099792480469px, 101.73889923095703px) translate(-278.5099792480469px, -101.73889923095703px) translate(-4px, 0px);transform: translate(278.5099792480469px, 101.73889923095703px) translate(-278.5099792480469px, -101.73889923095703px) translate(-4px, 0px);}98.89%{-webkit-transform: translate(278.5099792480469px, 101.73889923095703px) translate(-278.5099792480469px, -101.73889923095703px) translate(2px, 0px);transform: translate(278.5099792480469px, 101.73889923095703px) translate(-278.5099792480469px, -101.73889923095703px) translate(2px, 0px);}100%{-webkit-transform: translate(278.5099792480469px, 101.73889923095703px) translate(-278.5099792480469px, -101.73889923095703px) translate(2px, 0px);transform: translate(278.5099792480469px, 101.73889923095703px) translate(-278.5099792480469px, -101.73889923095703px) translate(2px, 0px);}}@-webkit-keyframes el__QMdX803tkz_7QUmAUnpq_Animation{0%{-webkit-transform: translate(174.8852996826172px, 112.99999237060547px) translate(-174.8852996826172px, -112.99999237060547px) translate(0px, 0px);transform: translate(174.8852996826172px, 112.99999237060547px) translate(-174.8852996826172px, -112.99999237060547px) translate(0px, 0px);}50%{-webkit-transform: translate(174.8852996826172px, 112.99999237060547px) translate(-174.8852996826172px, -112.99999237060547px) translate(0px, 5px);transform: translate(174.8852996826172px, 112.99999237060547px) translate(-174.8852996826172px, -112.99999237060547px) translate(0px, 5px);}98.89%{-webkit-transform: translate(174.8852996826172px, 112.99999237060547px) translate(-174.8852996826172px, -112.99999237060547px) translate(0px, 0px);transform: translate(174.8852996826172px, 112.99999237060547px) translate(-174.8852996826172px, -112.99999237060547px) translate(0px, 0px);}100%{-webkit-transform: translate(174.8852996826172px, 112.99999237060547px) translate(-174.8852996826172px, -112.99999237060547px) translate(0px, 0px);transform: translate(174.8852996826172px, 112.99999237060547px) translate(-174.8852996826172px, -112.99999237060547px) translate(0px, 0px);}}@keyframes el__QMdX803tkz_7QUmAUnpq_Animation{0%{-webkit-transform: translate(174.8852996826172px, 112.99999237060547px) translate(-174.8852996826172px, -112.99999237060547px) translate(0px, 0px);transform: translate(174.8852996826172px, 112.99999237060547px) translate(-174.8852996826172px, -112.99999237060547px) translate(0px, 0px);}50%{-webkit-transform: translate(174.8852996826172px, 112.99999237060547px) translate(-174.8852996826172px, -112.99999237060547px) translate(0px, 5px);transform: translate(174.8852996826172px, 112.99999237060547px) translate(-174.8852996826172px, -112.99999237060547px) translate(0px, 5px);}98.89%{-webkit-transform: translate(174.8852996826172px, 112.99999237060547px) translate(-174.8852996826172px, -112.99999237060547px) translate(0px, 0px);transform: translate(174.8852996826172px, 112.99999237060547px) translate(-174.8852996826172px, -112.99999237060547px) translate(0px, 0px);}100%{-webkit-transform: translate(174.8852996826172px, 112.99999237060547px) translate(-174.8852996826172px, -112.99999237060547px) translate(0px, 0px);transform: translate(174.8852996826172px, 112.99999237060547px) translate(-174.8852996826172px, -112.99999237060547px) translate(0px, 0px);}}#el_XjDOSI00hL *{-webkit-animation-duration: 3s;animation-duration: 3s;-webkit-animation-iteration-count: infinite;animation-iteration-count: infinite;-webkit-animation-timing-function: cubic-bezier(0, 0, 1, 1);animation-timing-function: cubic-bezier(0, 0, 1, 1);}#el_vbDYW-b_UC{fill: #001024;}#el_1hPQdJ5hEe{fill: #001024;}#el_vNIqvXl0ks{fill: #fff;}#el_i671a_72dK{fill: none;stroke: #001024;stroke-miterlimit: 10;stroke-width: 1.23px;}#el_ktKt45IkcC{fill: #fff;-webkit-transform: translate(-14.23px, -75.4px);transform: translate(-14.23px, -75.4px);}#el_UMQarAJeEO{fill: #fff;-webkit-transform: translate(-14.23px, -75.4px);transform: translate(-14.23px, -75.4px);}#el_ZPZP1fjzTH{fill: #fff;-webkit-transform: translate(-14.23px, -75.4px);transform: translate(-14.23px, -75.4px);}#el_ZGhi2fppg0F{fill: #7fd5f3;}#el_3Xx_OLasS4g{fill: #fafcfd;}#el_F_1pAtsfa5B{fill: none;stroke-miterlimit: 10;stroke-width: 1.23px;stroke: #7fd5f3;}#el_FBss37q_ivT{fill: #7fd5f3;}#el_gfE4qIWiTbX{fill: #fff;-webkit-transform: translate(-14.23px, -75.4px);transform: translate(-14.23px, -75.4px);}#el_AdxamUHemMm{fill: #fff;-webkit-transform: translate(-14.23px, -75.4px);transform: translate(-14.23px, -75.4px);}#el_zaqLA491Dy6{fill: #fff;-webkit-transform: translate(-14.23px, -75.4px);transform: translate(-14.23px, -75.4px);}#el_Cf_-YyLjt1s{fill: #fff;-webkit-transform: translate(-14.23px, -75.4px);transform: translate(-14.23px, -75.4px);}#el_OZXIDYgc7bv{fill: #004d7a;}#el_h9qYIaGQd_V{fill: #fff;-webkit-transform: translate(-14.23px, -75.4px);transform: translate(-14.23px, -75.4px);}#el_59C1LiqjYXX{fill: #004d7a;}#el_R_PGQAwgthK{fill: none;stroke-miterlimit: 10;stroke-width: 1.23px;stroke: #004d7a;}#el_qcol04bJmpn{fill: #fafcfd;}#el_k30WG1opMgY{fill: #00abe7;}#el_qBdog1i4pZf{stroke-miterlimit: 10;stroke-width: 1.23px;fill: #5bbefb;stroke: #5bbefb;}#el_SlcX5xyp5Ku{fill: #00abe7;}#el_l18cElhgNmb{fill: #fafcfd;}#el_XQ26NjTeZyV{fill: #fff;-webkit-transform: translate(-14.23px, -75.4px);transform: translate(-14.23px, -75.4px);}#el_HrHoPzuRKvK{fill: #fff;-webkit-transform: translate(-14.23px, -75.4px);transform: translate(-14.23px, -75.4px);}#el_Ot7rljlp3pV{fill: #fff;}#el_PIHTX7pxzND{fill: none;stroke-miterlimit: 10;stroke: #1179bf;stroke-width: 1.23px;}#el_RgbBNw6MayC{fill: #1179bf;}#el_-OFXRY9q4Gw{stroke-miterlimit: 10;stroke: #1179bf;stroke-width: 1.23px;fill: #1179bf;}#el_NCu96lBN5IT{fill: #fafcfd;}#el_1yjgru3HFox{fill: #fff;-webkit-transform: translate(-14.23px, -75.4px);transform: translate(-14.23px, -75.4px);}#el_-YpYIh733-m{fill: #fff;-webkit-transform: translate(-14.23px, -75.4px);transform: translate(-14.23px, -75.4px);}#el_f7K2rz4dzmm{fill: #fff;}#el_I7O8_Emv68P{fill: #001024;font-size: 15.03px;font-family: ZFPrometo-Medium, ZF Prometo;font-weight: 500;-webkit-transform: translate(37.61px, 169.92px) scale(0.96, 1);transform: translate(37.61px, 169.92px) scale(0.96, 1);}#el_VZhERJtLqMs{fill: #001024;font-size: 13.15px;font-family: ZFPrometo-Light, ZF Prometo;font-weight: 300;-webkit-transform: translate(12.04px, 200.19px) scale(0.96, 1);transform: translate(12.04px, 200.19px) scale(0.96, 1);}#el_CpJhQPaAiPR{letter-spacing: -0.01em;}#el_opP2p2SMMhy{letter-spacing: -0.01em;}#el_eg5zVk6JTfb{fill: #004d7a;font-size: 15.03px;font-family: ZFPrometo-Medium, ZF Prometo;font-weight: 500;-webkit-transform: translate(157.59px, 169.92px) scale(0.96, 1);transform: translate(157.59px, 169.92px) scale(0.96, 1);}#el_pNadYB9X3o7{fill: #1179bf;font-size: 15.03px;font-family: ZFPrometo-Medium, ZF Prometo;font-weight: 500;-webkit-transform: translate(278.59px, 169.92px) scale(0.96, 1);transform: translate(278.59px, 169.92px) scale(0.96, 1);}#el_RiY2jUe-hFL{fill: #00abe7;font-size: 15.03px;font-family: ZFPrometo-Medium, ZF Prometo;font-weight: 500;-webkit-transform: translate(398.97px, 169.92px) scale(0.96, 1);transform: translate(398.97px, 169.92px) scale(0.96, 1);}#el_985MA6p5R6W{fill: #7fd5f3;font-size: 15.03px;font-family: ZFPrometo-Medium, ZF Prometo;font-weight: 500;-webkit-transform: translate(520.5px, 169.92px) scale(0.96, 1);transform: translate(520.5px, 169.92px) scale(0.96, 1);}#el_b1bP4y3Fe4f{fill: #004d7a;font-size: 13.15px;font-family: ZFPrometo-Light, ZF Prometo;font-weight: 300;-webkit-transform: translate(124.08px, 200.19px) scale(0.96, 1);transform: translate(124.08px, 200.19px) scale(0.96, 1);}#el_AfH0txXEvIJ{letter-spacing: -0.01em;}#el_685tfRVArot{letter-spacing: -0.02em;}#el_y-OqzrZZaGk{letter-spacing: 0.01em;}#el_dSWMxfIqXP-{letter-spacing: 0em;}#el_YaBYIZ_s9PQ{letter-spacing: -0.01em;}#el_YRBlQf76Tg3{letter-spacing: 0.01em;}#el_RDJ22Obd2h_{fill: #1179bf;font-size: 13.15px;font-family: ZFPrometo-Light, ZF Prometo;font-weight: 300;-webkit-transform: translate(259.5px, 200.19px) scale(0.96, 1);transform: translate(259.5px, 200.19px) scale(0.96, 1);}#el_EKvluezY9k4{letter-spacing: -0.01em;}#el_25AJ7PIficd{fill: #00abe7;font-size: 13.15px;font-family: ZFPrometo-Light, ZF Prometo;font-weight: 300;-webkit-transform: translate(382.68px, 200.19px) scale(0.96, 1);transform: translate(382.68px, 200.19px) scale(0.96, 1);}#el_4siS_71eWBm{letter-spacing: -0.01em;}#el_r24ZJVLN3gU{letter-spacing: -0.02em;}#el_AUVBkOkEBEU{letter-spacing: -0.01em;}#el_plQf4DcBxWw{letter-spacing: -0.02em;}#el_mX0Kln7ncw3{letter-spacing: 0.01em;}#el_i73C0F2I4VW{letter-spacing: 0em;}#el_VvKm1HZRvlF{fill: #7fd5f3;font-size: 13.15px;font-family: ZFPrometo-Light, ZF Prometo;font-weight: 300;-webkit-transform: translate(507.06px, 200.19px) scale(0.96, 1);transform: translate(507.06px, 200.19px) scale(0.96, 1);}#el_AinWdre7F8M{letter-spacing: -0.01em;}#el_AWfuU32ORCJ{letter-spacing: 0em;}#el_b3B_8e-Ez7J{letter-spacing: 0.01em;}#el_CWSu4fxJ4pt{letter-spacing: -0.02em;}#el_pmIhN6be_pN{letter-spacing: 0em;}#el_G1uYl9P_whG{letter-spacing: -0.01em;}#el_HDfbYhS6yM7{fill: #fff;-webkit-transform: translate(-14.23px, -75.4px);transform: translate(-14.23px, -75.4px);}#el_bdLAWAZA1pr{fill: #fff;-webkit-transform: translate(-14.23px, -75.4px);transform: translate(-14.23px, -75.4px);}#el_qWFHKs4YvVp{fill: #fff;-webkit-transform: translate(-14.23px, -75.4px);transform: translate(-14.23px, -75.4px);}#el_1kw__KyBMw_{fill: #fff;-webkit-transform: translate(-14.23px, -75.4px);transform: translate(-14.23px, -75.4px);}#el_RdXJ2Vza-YF{stroke-miterlimit: 10;stroke: #1179bf;stroke-width: 1.23px;fill: #1179bf;-webkit-transform: translate(-14.23px, -75.4px);transform: translate(-14.23px, -75.4px);}#el_U0JoUOZspor{fill: #fff;-webkit-transform: translate(-14.23px, -75.4px);transform: translate(-14.23px, -75.4px);}#el_o11hddEWx97{fill: #fff;-webkit-transform: translate(-14.23px, -75.4px);transform: translate(-14.23px, -75.4px);}#el_wwQPUKecyXe{fill: #00abe7;}#el_8RDfcY9k4pA{fill: #fff;-webkit-transform: translate(-14.23px, -75.4px);transform: translate(-14.23px, -75.4px);}#el_pKSQpQPXDNz{fill: #fff;-webkit-transform: translate(-14.23px, -75.4px);transform: translate(-14.23px, -75.4px);}#el_lM7BzwWpp6y{fill: #fff;}#el_nCKx6-sVwka{fill: #fff;}#el_6ud46Cw64f8{fill: #fff;}#el_2ultDAnqIGY{fill: #fff;-webkit-transform: translate(-14.23px, -75.4px);transform: translate(-14.23px, -75.4px);}#el_Wq9zIceVEip{fill: #fff;-webkit-transform: translate(-14.23px, -75.4px);transform: translate(-14.23px, -75.4px);}#el_ZiNXITqIvd5{fill: #fff;-webkit-transform: translate(-14.23px, -75.4px);transform: translate(-14.23px, -75.4px);}#el__QMdX803tkz_7QUmAUnpq{-webkit-animation-name: el__QMdX803tkz_7QUmAUnpq_Animation;animation-name: el__QMdX803tkz_7QUmAUnpq_Animation;-webkit-transform: translate(174.8852996826172px, 112.99999237060547px) translate(-174.8852996826172px, -112.99999237060547px) translate(0px, 0px);transform: translate(174.8852996826172px, 112.99999237060547px) translate(-174.8852996826172px, -112.99999237060547px) translate(0px, 0px);-webkit-animation-timing-function: cubic-bezier(0.42, 0, 0.58, 1);animation-timing-function: cubic-bezier(0.42, 0, 0.58, 1);}#el_prxEhMiaDpR_mTTVF3g9r{-webkit-animation-name: el_prxEhMiaDpR_mTTVF3g9r_Animation;animation-name: el_prxEhMiaDpR_mTTVF3g9r_Animation;-webkit-transform: translate(278.5099792480469px, 101.73889923095703px) translate(-278.5099792480469px, -101.73889923095703px) translate(1px, 0px);transform: translate(278.5099792480469px, 101.73889923095703px) translate(-278.5099792480469px, -101.73889923095703px) translate(1px, 0px);-webkit-animation-timing-function: cubic-bezier(0.42, 0, 0.58, 1);animation-timing-function: cubic-bezier(0.42, 0, 0.58, 1);}#el_KmovpzKobVj_9ZgUOCqdh{-webkit-animation-name: el_KmovpzKobVj_9ZgUOCqdh_Animation;animation-name: el_KmovpzKobVj_9ZgUOCqdh_Animation;-webkit-transform: translate(425.5077819824219px, 100.25838088989258px) rotate(0deg) translate(-425.5077819824219px, -100.25838088989258px);transform: translate(425.5077819824219px, 100.25838088989258px) rotate(0deg) translate(-425.5077819824219px, -100.25838088989258px);-webkit-animation-timing-function: cubic-bezier(0.42, 0, 0.58, 1);animation-timing-function: cubic-bezier(0.42, 0, 0.58, 1);}#el_Kg3vGX-zEWr{-webkit-animation-name: el_Kg3vGX-zEWr_Animation;animation-name: el_Kg3vGX-zEWr_Animation;opacity: 0;-webkit-animation-timing-function: cubic-bezier(0, 0, 0.58, 1);animation-timing-function: cubic-bezier(0, 0, 0.58, 1);}#el_FHnWfFsZT-n_CoplCvhDC{-webkit-animation-name: el_FHnWfFsZT-n_CoplCvhDC_Animation;animation-name: el_FHnWfFsZT-n_CoplCvhDC_Animation;}#el_lM7BzwWpp6y_zs4bOFOgI{-webkit-animation-name: el_lM7BzwWpp6y_zs4bOFOgI_Animation;animation-name: el_lM7BzwWpp6y_zs4bOFOgI_Animation;-webkit-animation-timing-function: cubic-bezier(0.42, 0, 0.58, 1);animation-timing-function: cubic-bezier(0.42, 0, 0.58, 1);}#el_nCKx6-sVwka_m_3osGjWM{-webkit-animation-name: el_nCKx6-sVwka_m_3osGjWM_Animation;animation-name: el_nCKx6-sVwka_m_3osGjWM_Animation;-webkit-animation-timing-function: cubic-bezier(0.42, 0, 0.58, 1);animation-timing-function: cubic-bezier(0.42, 0, 0.58, 1);}#el_6ud46Cw64f8_6Hd2YcAvJ{-webkit-animation-name: el_6ud46Cw64f8_6Hd2YcAvJ_Animation;animation-name: el_6ud46Cw64f8_6Hd2YcAvJ_Animation;-webkit-animation-timing-function: cubic-bezier(0.42, 0, 0.58, 1);animation-timing-function: cubic-bezier(0.42, 0, 0.58, 1);}#el_Kg3vGX-zEWr_v7YzuU_FN{-webkit-animation-name: el_Kg3vGX-zEWr_v7YzuU_FN_Animation;animation-name: el_Kg3vGX-zEWr_v7YzuU_FN_Animation;}</style><defs/><title>HowItWorks</title><g id="el_AB5ZATIo5h" data-name="Ebene 1"><g id="el_84igYp6W8O"><ellipse cx="59.88" cy="112.19" rx="29.49" ry="30.69" id="el_vbDYW-b_UC"/><polygon points="120.01 10.71 112.84 0.06 0.3 0.06 5.06 10.09 0 20.73 112.84 20.73 120.01 10.71" id="el_1hPQdJ5hEe"/><ellipse cx="59.88" cy="10.08" rx="4.21" ry="4.38" id="el_vNIqvXl0ks"/><line x1="59.88" y1="20.73" x2="59.88" y2="81.49" id="el_i671a_72dK"/><g id="el_ns9wDmh8-p"><path d="M69,193.82l-.3,2.82a.78.78,0,0,0,.2.62.8.8,0,0,0,.6.27h8.54a.84.84,0,0,0,.61-.27.82.82,0,0,0,.2-.62l-.3-2.82H89.22a3,3,0,0,0,3-3V170a3,3,0,0,0-3-3H57.74a3,3,0,0,0-3,3v20.81a3,3,0,0,0,3,3Zm8.15,2.1H70.43l.22-2.1H77Zm-19.44-27.3H89.22A1.39,1.39,0,0,1,90.61,170v18.32H56.35V170A1.39,1.39,0,0,1,57.74,168.62Zm-1.39,22.19v-.87H90.61v.87a1.39,1.39,0,0,1-1.39,1.39H57.74A1.39,1.39,0,0,1,56.35,190.81Z" id="el_ktKt45IkcC"/><path d="M89.2,203a.82.82,0,0,0,0-.79l-1.59-3.07a.82.82,0,0,0-.72-.44H60.05a.82.82,0,0,0-.72.44l-1.59,3.07a.8.8,0,0,0,.71,1.18H88.51A.82.82,0,0,0,89.2,203Zm-29.42-1.23.76-1.45H86.42l.76,1.45Z" id="el_UMQarAJeEO"/><path d="M90.61,204.8h-1.3a3.39,3.39,0,0,0-3.39,3.39.81.81,0,0,0,.81.81h6.46a.81.81,0,0,0,.81-.81A3.39,3.39,0,0,0,90.61,204.8Zm-2.88,2.58a1.79,1.79,0,0,1,1.58-1h1.3a1.77,1.77,0,0,1,1.58,1Z" id="el_ZPZP1fjzTH"/></g></g><g id="el_wWvAsZZOItv"><polygon points="601.05 10.71 593.88 0.06 481.33 0.06 486.09 10.09 481.04 20.73 593.88 20.73 601.05 10.71" id="el_ZGhi2fppg0F"/><ellipse cx="540.92" cy="10.08" rx="4.21" ry="4.38" id="el_3Xx_OLasS4g"/><line x1="540.92" y1="20.73" x2="540.92" y2="81.49" id="el_F_1pAtsfa5B"/><ellipse cx="540.92" cy="112.19" rx="29.49" ry="30.69" id="el_FBss37q_ivT"/><path d="M542.68,176.12a4,4,0,1,0-3.66-4A3.83,3.83,0,0,0,542.68,176.12Z" id="el_gfE4qIWiTbX"/><path d="M552.5,171.82l-2,2.93-5,2.16-.08,0-5.82.05a1.53,1.53,0,0,0-1.57,1l-5.22,12.43a1.77,1.77,0,0,0,.77,2.25,1.52,1.52,0,0,0,2.08-.84l2.52-6v21.17a1.89,1.89,0,1,0,3.76,0V194.76h1.37v12.16a1.89,1.89,0,1,0,3.76,0v-27l5-2.16a1.56,1.56,0,0,0,.68-.57l1.43-2.13L553,173.24A3.21,3.21,0,0,1,552.5,171.82Z" id="el_AdxamUHemMm"/><path d="M567.31,176.12a4,4,0,1,0-3.66-4A3.82,3.82,0,0,0,567.31,176.12Z" id="el_zaqLA491Dy6"/><path d="M577.12,190.34l-5.22-12.43a1.52,1.52,0,0,0-1.57-1l-5.9,0-5-2.16-2.91-4.33a1.5,1.5,0,0,0-2.19-.37,1.8,1.8,0,0,0-.34,2.38l3.18,4.73a1.59,1.59,0,0,0,.69.57l5,2.16v27a1.89,1.89,0,1,0,3.76,0V194.75H568v12.17a1.89,1.89,0,1,0,3.76,0V185.75l2.53,6a1.51,1.51,0,0,0,2.07.84A1.76,1.76,0,0,0,577.12,190.34Z" id="el_Cf_-YyLjt1s"/></g><g id="el_tMqUCe-KbVT" data-name="Step 2"><ellipse cx="180.14" cy="112.19" rx="29.49" ry="30.69" id="el_OZXIDYgc7bv"/><path d="M209.63,181.48a12.12,12.12,0,0,0-12-11.43,12.52,12.52,0,0,0-9.9,4.95l-.16-.08-.43-.19-.25-.09-.44-.13-.24-.06a3.86,3.86,0,0,0-.49-.09l-.21,0a5.81,5.81,0,0,0-.72-.05,6.39,6.39,0,0,0-6.39,6.36,2.45,2.45,0,0,0,0,.27,9.74,9.74,0,0,0-5,8.31,9.11,9.11,0,0,0,9.11,9.08h3.66a.71.71,0,0,0,0-1.42h-3.66a7.68,7.68,0,0,1-7.69-7.66,8.4,8.4,0,0,1,4.56-7.24l.4-.19v-.44c0-.09,0-.17,0-.26v-.27c0-.06,0-.12,0-.18a5,5,0,0,1,5-4.94c.22,0,.44,0,.65,0l.17,0a5.59,5.59,0,0,1,.56.12l.07,0a4.36,4.36,0,0,1,.6.23l.15.07.49.28a4.93,4.93,0,0,1,2.28,4.15.71.71,0,0,0,1.42,0,6.31,6.31,0,0,0-2.27-4.85,11.24,11.24,0,0,1,8.72-4.33,10.68,10.68,0,0,1,10.53,9.81,13.85,13.85,0,0,0-2.89.08.71.71,0,0,0,.1,1.41h.11a13.09,13.09,0,0,1,3.32,0,7.24,7.24,0,0,1,5.8,7.05,7.1,7.1,0,0,1-7.12,7.08h-2.82a.71.71,0,1,0,0,1.42h2.82a8.53,8.53,0,0,0,8.54-8.5A8.71,8.71,0,0,0,209.63,181.48Z" id="el_h9qYIaGQd_V"/><polygon points="240.27 10.71 233.1 0.06 120.56 0.06 125.32 10.09 120.26 20.73 233.1 20.73 240.27 10.71" id="el_59C1LiqjYXX"/><line x1="180.14" y1="20.73" x2="180.14" y2="85.56" id="el_R_PGQAwgthK"/><ellipse cx="180.14" cy="10.08" rx="4.21" ry="4.38" id="el_qcol04bJmpn"/></g><g id="el_Pa4wKewBAhv"><polygon points="480.79 10.71 473.62 0.06 361.07 0.06 365.83 10.09 360.78 20.73 473.62 20.73 480.79 10.71" id="el_k30WG1opMgY"/><line x1="420.66" y1="20.73" x2="420.66" y2="81.49" id="el_qBdog1i4pZf"/><ellipse cx="420.66" cy="112.19" rx="29.49" ry="30.69" id="el_SlcX5xyp5Ku"/><ellipse cx="420.66" cy="10.08" rx="4.21" ry="4.38" id="el_l18cElhgNmb"/><path d="M454.4,168.37h-5.21l-2.29,2.94h6.66v23.48H416.89V171.31h21.33l1.76-2.94H416.05a1.83,1.83,0,0,0-1.66,2v28.38a1.83,1.83,0,0,0,1.66,2H454.4a1.83,1.83,0,0,0,1.66-2V170.33A1.83,1.83,0,0,0,454.4,168.37Z" id="el_XQ26NjTeZyV"/><path d="M440.61,206.22a2.57,2.57,0,0,1-.8-1.56l-.27-2h-8.63l-.27,2a2.57,2.57,0,0,1-.8,1.56c-.72.62-1.29,1.16-.72,1.25s5.72,0,6.1,0,5.56.08,6.11,0S441.33,206.84,440.61,206.22Z" id="el_HrHoPzuRKvK"/><rect x="423.25" y="92.98" width="13.84" height="2.94" id="el_Ot7rljlp3pV"/></g><g id="el_CokUsefvK2t"><line x1="300.4" y1="20.67" x2="300.4" y2="81.43" id="el_PIHTX7pxzND"/><polygon points="360.53 10.65 353.36 0 240.81 0 245.57 10.02 240.52 20.67 353.36 20.67 360.53 10.65" id="el_RgbBNw6MayC"/><ellipse cx="300.4" cy="112.12" rx="29.49" ry="30.69" id="el_-OFXRY9q4Gw"/><ellipse cx="300.4" cy="10.02" rx="4.21" ry="4.38" id="el_NCu96lBN5IT"/><path d="M331.54,174l-11.09-8.92a.37.37,0,0,0-.6.27v8.93a.36.36,0,0,0,.37.36h11.09A.36.36,0,0,0,331.54,174Z" id="el_1yjgru3HFox"/><path d="M331.32,176H318.81a.35.35,0,0,1-.35-.35V165.32a.35.35,0,0,0-.35-.34H298.63a.34.34,0,0,0-.34.34v14.47a.34.34,0,0,0,.34.34h5.57a.35.35,0,0,0,.35-.34v-4.3a.35.35,0,0,1,.6-.24c2,2.12,8.38,8.87,9.62,10.17a.34.34,0,0,1,0,.46c-1.24,1.36-7.64,8.07-9.63,10.16a.35.35,0,0,1-.6-.23c0-1.39,0-4.05,0-5a.35.35,0,0,0-.35-.34H299a.68.68,0,0,0-.69.68v14.47a.69.69,0,0,0,.69.69h32a.69.69,0,0,0,.69-.69V176.34A.34.34,0,0,0,331.32,176Z" id="el_-YpYIh733-m"/><rect x="284.04" y="99.6" width="19.86" height="21.3" id="el_f7K2rz4dzmm"/></g><text id="el_I7O8_Emv68P">STEP 1</text><text id="el_VZhERJtLqMs">Build up a <tspan x="60.25" y="0" id="el_CpJhQPaAiPR">S</tspan><tspan x="67.56" y="0" id="el_X8FctXWkqLm">AP </tspan><tspan x="-0.97" y="15.78" id="el_vnji8ghFz0W">UI 5 Appli</tspan><tspan x="53.08" y="15.78" id="el_opP2p2SMMhy">c</tspan><tspan x="58.99" y="15.78" id="el_vwz7B48nc5H">ation</tspan></text><text id="el_eg5zVk6JTfb">STEP 2</text><text id="el_pNadYB9X3o7">STEP 3</text><text id="el_RiY2jUe-hFL">STEP 4</text><text id="el_985MA6p5R6W">STEP 5</text><text id="el_b1bP4y3Fe4f">D<tspan x="8.89" y="0" id="el_AfH0txXEvIJ">o</tspan><tspan x="16.01" y="0" id="el_685tfRVArot">w</tspan><tspan x="25.47" y="0" id="el_Y1nFHzsv5W3">nload this Theme</tspan><tspan x="0" y="15.78" id="el_Q2GzB3pUuvr">that adjusts your </tspan><tspan x="0" y="31.57" id="el_pB4NL51t4zI">d</tspan><tspan x="7.47" y="31.57" id="el_y-OqzrZZaGk">e</tspan><tspan x="14.59" y="31.57" id="el_dSWMxfIqXP-">sign </tspan><tspan x="42.09" y="31.57" id="el_YaBYIZ_s9PQ">t</tspan><tspan x="46.84" y="31.57" id="el_Lk-GWYoV4dY">o the ZF </tspan><tspan x="0" y="47.35" id="el_69bRmbAKjj7">Guidelin</tspan><tspan x="45.74" y="47.35" id="el_YRBlQf76Tg3">e</tspan><tspan x="52.85" y="47.35" id="el_oeoUyFwq-K7">s</tspan></text><text id="el_RDJ22Obd2h_">Import this Theme <tspan x="0" y="15.78" id="el_QeTieHvbahV">in</tspan><tspan x="10.17" y="15.78" id="el_EKvluezY9k4">t</tspan><tspan x="14.92" y="15.78" id="el_dVewLj-tZdP">o the Theme </tspan><tspan x="0" y="31.57" id="el_3pvQrpH-e78">Builder </tspan></text><text x="-14.23" y="-75.4" id="el_7JNYtxfwIEi"/><text id="el_25AJ7PIficd">Apply the theme <tspan x="100.52" y="0" id="el_4siS_71eWBm">t</tspan><tspan x="105.27" y="0" id="el_qWX_KPFZd-u">o</tspan><tspan x="0" y="15.78" id="el_UHKKevEt49d">the appli</tspan><tspan x="50.14" y="15.78" id="el_r24ZJVLN3gU">c</tspan><tspan x="56.05" y="15.78" id="el_S3OLvxsWigg">ation and </tspan><tspan x="0" y="31.57" id="el_h3VWJIl1wN8">add some cus</tspan><tspan x="80.54" y="31.57" id="el_AUVBkOkEBEU">t</tspan><tspan x="85.29" y="31.57" id="el_H9Yw1c4tDYC">om </tspan><tspan x="0" y="47.35" id="el_anzOim2TyeK">css if ne</tspan><tspan x="47.18" y="47.35" id="el_plQf4DcBxWw">cc</tspan><tspan x="58.92" y="47.35" id="el_mX0Kln7ncw3">e</tspan><tspan x="66.03" y="47.35" id="el_i73C0F2I4VW">sary </tspan></text><text id="el_VvKm1HZRvlF">Enjoy the n<tspan x="66.2" y="0" id="el_AinWdre7F8M">e</tspan><tspan x="73.03" y="0" id="el_AWfuU32ORCJ">w </tspan><tspan x="0" y="15.78" id="el_VquihzSK0C5">d</tspan><tspan x="7.47" y="15.78" id="el_b3B_8e-Ez7J">e</tspan><tspan x="14.59" y="15.78" id="el_6P30CHjhYSt">sign that </tspan><tspan x="69.76" y="15.78" id="el_CWSu4fxJ4pt">f</tspan><tspan x="73.87" y="15.78" id="el_pmIhN6be_pN">oll</tspan><tspan x="86.5" y="15.78" id="el_G1uYl9P_whG">o</tspan><tspan x="93.62" y="15.78" id="el_iHosChAooGZ">ws </tspan><tspan x="0" y="31.57" id="el_lZluDoSzyPb">the ZF Guideline</tspan></text></g><g id="el_Kg3vGX-zEWr_v7YzuU_FN" data-animator-group="true" data-animator-type="2"><g id="el_Kg3vGX-zEWr" data-name="5.Klatscher"><path d="M549.9,168.37l0,0a.27.27,0,0,1-.38,0l-2.29-2.69a.28.28,0,0,1,0-.39l.06,0a.26.26,0,0,1,.37,0l2.29,2.69A.28.28,0,0,1,549.9,168.37Z" id="el_HDfbYhS6yM7"/><path d="M557,167.5l-.09-.05a.27.27,0,0,1-.09-.36l1.57-2.83a.25.25,0,0,1,.34-.09l.09.05a.27.27,0,0,1,.09.36l-1.57,2.83A.24.24,0,0,1,557,167.5Z" id="el_bdLAWAZA1pr"/><path d="M554.49,166.59h-.07a.28.28,0,0,1-.24-.3l.33-3.84a.26.26,0,0,1,.29-.25h.07a.29.29,0,0,1,.24.31l-.33,3.83A.26.26,0,0,1,554.49,166.59Z" id="el_qWFHKs4YvVp"/><path d="M552.06,167l-.07,0a.26.26,0,0,1-.34-.16l-1.28-3.6a.29.29,0,0,1,.16-.36l.06,0a.26.26,0,0,1,.34.16l1.29,3.6A.28.28,0,0,1,552.06,167Z" id="el_1kw__KyBMw_"/></g></g><g id="el_prxEhMiaDpR_mTTVF3g9r" data-animator-group="true" data-animator-type="0"><g id="el_prxEhMiaDpR" data-name="4.Pfeil"><path d="M297.38,192.47h5.41a.35.35,0,0,1,.36.34v5a.36.36,0,0,0,.62.23c2.06-2.09,8.7-8.8,10-10.16a.32.32,0,0,0,0-.46l-10-10.17a.36.36,0,0,0-.62.24v4.3a.35.35,0,0,1-.36.34H297v10.49A.79.79,0,0,1,297.38,192.47Z" id="el_RdXJ2Vza-YF"/><path d="M311.3,187.41l-6.13-6.69a.35.35,0,0,0-.61.24v2.21a.34.34,0,0,1-.35.34H293.43a.69.69,0,0,0-.69.69v6.2a.69.69,0,0,0,.69.69h10.78a.34.34,0,0,1,.35.34v2.9a.35.35,0,0,0,.61.23l6.13-6.69A.34.34,0,0,0,311.3,187.41Z" id="el_U0JoUOZspor"/></g></g><g id="el_KmovpzKobVj_9ZgUOCqdh" data-animator-group="true" data-animator-type="1"><g id="el_KmovpzKobVj" data-name="3.Pinsel"><g id="el_GJzSERS8NGO"><path d="M428.42,188.52c2,0,2.22-.58,2.86-2.9,1.18-3.67,6.52,1,3.21,2.56S426.45,188.53,428.42,188.52Z" id="el_o11hddEWx97"/><polygon points="424.41 107.09 421.14 104.49 430.6 86.94 437.29 92.29 424.41 107.09" id="el_wwQPUKecyXe"/><path d="M448.63,164.36c-1-.91-2.54-.46-3.54,1L435,182.22c-1,1.45-1,1.17,0,2.08s.73,1,1.73-.49l11.88-15.18C449.55,167.17,449.58,165.26,448.63,164.36Zm-2.6,2a5.53,5.53,0,0,0-.64-.67,2.13,2.13,0,0,1,2.19-1.15A3.39,3.39,0,0,0,446,166.38Z" id="el_8RDfcY9k4pA"/></g></g></g><g id="el__QMdX803tkz_7QUmAUnpq" data-animator-group="true" data-animator-type="0"><g id="el__QMdX803tkz" data-name="2.Pfeil"><path id="el_pKSQpQPXDNz" data-name="2.Pfeil" d="M200.63,199.21l-4.46,4.44V189.11a.71.71,0,0,0-1.42,0v14.54l-4.47-4.44a.71.71,0,0,0-1,1l5.68,5.65a.76.76,0,0,0,.23.15.62.62,0,0,0,.27.05.65.65,0,0,0,.27-.05.91.91,0,0,0,.23-.15l5.68-5.65a.71.71,0,0,0-1-1Z"/></g></g><g id="el_R7zw7OtsYHS" data-name="1.Punkte"><g id="el_yK9eppYvXEO"><g id="el_lM7BzwWpp6y_zs4bOFOgI" data-animator-group="true" data-animator-type="2"><rect x="46.42" y="108.6" width="1.71" height="1.92" id="el_lM7BzwWpp6y"/></g><g id="el_nCKx6-sVwka_m_3osGjWM" data-animator-group="true" data-animator-type="2"><rect x="49.84" y="108.6" width="1.71" height="1.92" id="el_nCKx6-sVwka"/></g><g id="el_6ud46Cw64f8_6Hd2YcAvJ" data-animator-group="true" data-animator-type="2"><rect x="53.26" y="108.6" width="1.71" height="1.92" id="el_6ud46Cw64f8"/></g></g></g><g id="el_FHnWfFsZT-n_CoplCvhDC" data-animator-group="true" data-animator-type="1"><g id="el_FHnWfFsZT-n" data-name="1.rad"><path d="M81.5,175.13a3.37,3.37,0,1,0,3.37,3.37A3.37,3.37,0,0,0,81.5,175.13Zm0,6.26a2.89,2.89,0,1,1,2.89-2.89A2.9,2.9,0,0,1,81.5,181.39Z" id="el_2ultDAnqIGY"/><path id="el_Wq9zIceVEip" d="M87.33,177.06h-.49a5.24,5.24,0,0,0-.54-1.32l.34-.34a.66.66,0,0,0,0-1l-1.09-1.09a.68.68,0,0,0-1,0l-.34.34a5.4,5.4,0,0,0-1.32-.54v-.49a.67.67,0,0,0-.66-.67H80.72a.67.67,0,0,0-.66.67v.49a5.4,5.4,0,0,0-1.32.54l-.34-.34a.68.68,0,0,0-1,0l-1.09,1.09a.66.66,0,0,0,0,1l.34.34a5.24,5.24,0,0,0-.54,1.32h-.49a.67.67,0,0,0-.67.66v1.55a.67.67,0,0,0,.67.67h.49a5.4,5.4,0,0,0,.54,1.32l-.34.34a.66.66,0,0,0,0,1l1.09,1.09a.68.68,0,0,0,1,0l.34-.34a5.4,5.4,0,0,0,1.32.54v.49a.67.67,0,0,0,.66.67h1.56a.67.67,0,0,0,.66-.67v-.49a5.4,5.4,0,0,0,1.32-.54l.34.34a.68.68,0,0,0,1,0l1.09-1.09a.66.66,0,0,0,0-1l-.34-.34a5.4,5.4,0,0,0,.54-1.32h.49a.67.67,0,0,0,.67-.66v-1.56A.67.67,0,0,0,87.33,177.06Zm.19,2.22a.19.19,0,0,1-.19.18h-.86l0,.19a4.71,4.71,0,0,1-.63,1.52l-.1.16.61.61a.18.18,0,0,1,0,.27l-1.09,1.09a.18.18,0,0,1-.27,0l-.61-.61-.16.1a4.71,4.71,0,0,1-1.52.63l-.19.05v.86a.19.19,0,0,1-.18.19H80.72a.19.19,0,0,1-.18-.19v-.86l-.19-.05a4.71,4.71,0,0,1-1.52-.63l-.16-.1-.61.61a.18.18,0,0,1-.27,0l-1.09-1.09a.18.18,0,0,1,0-.27l.61-.61-.1-.16a4.71,4.71,0,0,1-.63-1.52l0-.19h-.86a.19.19,0,0,1-.19-.18v-1.56a.19.19,0,0,1,.19-.18h.86l0-.19a4.71,4.71,0,0,1,.63-1.52l.1-.16-.61-.61a.18.18,0,0,1,0-.27l1.09-1.09a.18.18,0,0,1,.27,0l.61.61.16-.1a4.71,4.71,0,0,1,1.52-.63l.19-.05v-.86a.19.19,0,0,1,.18-.19h1.55a.19.19,0,0,1,.19.19v.86l.19.05a4.71,4.71,0,0,1,1.52.63l.16.1.61-.61a.18.18,0,0,1,.27,0l1.09,1.09a.18.18,0,0,1,0,.27l-.61.61.1.16a4.71,4.71,0,0,1,.63,1.52l0,.19h.86a.19.19,0,0,1,.19.18Z"/><path d="M81.5,176.09a2.41,2.41,0,1,0,2.41,2.41A2.41,2.41,0,0,0,81.5,176.09Zm0,4.34a1.93,1.93,0,1,1,1.93-1.93A1.94,1.94,0,0,1,81.5,180.43Z" id="el_ZiNXITqIvd5"/></g></g></svg>